<?xml version="1.0" encoding="UTF-8" standalone="no"?>
<svg
   id="Layer_1"
   version="1.1"
   viewBox="0 0 164.50999 164.50999"
   sodipodi:docname="favicon.svg"
   width="164.50999"
   height="164.50999"
   inkscape:version="1.4.2 (f4327f4, 2025-05-13)"
   xmlns:inkscape="http://www.inkscape.org/namespaces/inkscape"
   xmlns:sodipodi="http://sodipodi.sourceforge.net/DTD/sodipodi-0.dtd"
   xmlns="http://www.w3.org/2000/svg"
   xmlns:svg="http://www.w3.org/2000/svg">
  <defs
     id="defs1" />
  <sodipodi:namedview
     id="namedview1"
     pagecolor="#ffffff"
     bordercolor="#000000"
     borderopacity="0.25"
     inkscape:showpageshadow="2"
     inkscape:pageopacity="0.0"
     inkscape:pagecheckerboard="0"
     inkscape:deskcolor="#d1d1d1"
     inkscape:zoom="2.4527385"
     inkscape:cx="57.486764"
     inkscape:cy="58.913741"
     inkscape:window-width="1920"
     inkscape:window-height="1009"
     inkscape:window-x="-8"
     inkscape:window-y="-8"
     inkscape:window-maximized="1"
     inkscape:current-layer="Layer_1" />
  <g
     id="g37"
     transform="translate(-1.7365072,-2.0798711)"
     style="fill:#b9864f;fill-opacity:1">
    <g
       id="g1"
       transform="matrix(0.96062861,0,0,0.96062861,16.465794,3.3203839)"
       style="fill:#b9864f;fill-opacity:1">
      <path
         d="m 130.05,15.47 c -2.6539,-1.54423 -0.76915,-2.265271 0,0 z"
         id="path1"
         style="fill:#b9864f;fill-opacity:1" />
      <path
         d="m 128.23,13.92 c -1.41043,-0.316652 0.16332,-1.316978 0,0 z"
         id="path2"
         style="fill:#b9864f;fill-opacity:1" />
      <g
         id="g23"
         style="fill:#b9864f;fill-opacity:1">
        <g
           id="g6"
           style="fill:#b9864f;fill-opacity:1">
          <path
             d="m 22.68,98.44 v 0 c 0,0 0.04,0.02 0,0 z"
             id="path4"
             style="fill:#b9864f;fill-opacity:1" />
          <path
             d="m 81.73,20.09 v 0 c 0,0 -0.01,0 0,0 z"
             id="path5"
             style="fill:#b9864f;fill-opacity:1" />
          <path
             d="m 138.43,34.62 c -0.13989,-2.022077 0.073,-4.572769 -0.8,-6.07 0.0634,-3.145781 -2.40711,-4.936066 -3.515,-8.1675 -1.6884,-3.035994 -3.84174,-4.625833 -6.475,-6.5425 -4.26479,-3.356533 2.61945,1.02277 -2.4,-2.6 C 122.00623,9.5784547 120.65406,9.1036386 117.18,8.1 113.14957,6.9189627 109.3071,5.1754658 105.23,4.18 102.33945,4.1786348 99.771387,2.3126982 96.083379,3.2744156 90.281209,3.1683189 84.503484,2.7096868 78.65,2.76 75.994644,1.5200128 74.284385,2.8507308 71.33,3.24 66.81641,4.9096957 61.797873,4.1768953 57.43,6.35 54.045861,7.7297453 49.141799,7.7322975 47.2,11.03 c -3.02983,0.360088 -6.149917,3.195986 -9.16,6.46 -1.903261,2.354528 -2.890273,3.614165 -2.54,4.61 -0.864626,-0.170525 -2.115802,0.32806 -3.82,2.35 -0.880696,4.092536 -0.967516,8.555086 0.62,12.41 3.535712,4.785147 7.76558,9.713768 13.68,11.435 5.930392,3.959517 13.369951,4.746691 19.57,8.155 1.177466,2.657839 2.203151,5.503156 3.27,8.27 1.479619,4.179179 1.940904,8.601908 2.63375,12.9325 -0.688279,3.693154 1.565308,2.047363 0.75625,4.9875 -0.956105,0.373636 -0.411807,3.636951 -1.350887,4.974482 -0.817286,2.940584 0.64636,3.094043 -1.289113,2.735518 -0.997902,2.459281 1.599419,1.28869 -0.794975,5.350141 -2.079309,1.862248 -1.33892,3.126502 -4.211888,4.050962 C 61.124219,101.42015 57.3721,102.52239 53.59,103.01 c -3.840881,-1.0811 -8.038999,-3.926327 -8.7,-7.7 2.566015,-3.339888 7.491596,-4.11875 9.44,-7.92 0.947666,-3.239644 2.254939,-6.273086 2.2625,-9.78375 -1.338835,-2.53506 -2.935926,-5.187427 -5.506415,-6.862128 -2.94829,-1.680008 -5.869865,-3.111652 -9.281677,-3.075684 -3.710566,-0.57707 -6.949403,0.825455 -10.377846,1.861331 -6.109655,1.512103 -12.447949,2.450722 -17.587766,6.391949 -2.78989,1.692218 -5.7727156,3.093315 -7.4913185,6.038715 C 3.4345357,84.40359 3.7608788,88.52155 1.7745312,91.523281 2.7511344,94.128121 1.7589618,96.597336 2.05,99.26 c -0.070916,2.04095 0.4344471,5.28248 1.6270312,5.99187 2.6149507,2.17004 2.1947926,6.25854 6.4869378,5.52048 4.371191,0.85393 8.274648,-0.97094 12.296031,-1.35235 2.43618,-0.79251 3.629353,3.37053 5.79,4.66 1.39359,2.34885 5.501496,3.44092 4.17,6.82 -1.172983,3.29204 -1.833001,6.71295 -2.48,10.08 -2.976266,-0.20252 0.759109,4.53359 0.500987,7.07854 0.66903,4.89412 4.013453,9.93338 1.229013,14.76146 -3.410004,3.33091 -6.337328,8.15656 -0.252773,10.38078 3.68642,2.72712 8.439118,0.96951 12.574715,2.43935 4.478053,0.36718 8.846569,1.016 13.406086,0.75558 2.985686,0.0584 5.871898,0.18154 8.777597,-0.35258 4.785286,-0.55791 9.465302,-1.72496 13.915056,-3.49239 3.646659,-0.50915 6.74289,-2.2304 9.339723,-4.71823 4.453521,-0.96067 1.358931,-3.9922 -0.280404,-6.12251 -0.945016,-1.93482 -4.349734,-3.73664 -3.8,-4.76 -2.804105,-1.86061 1.932316,-3.98039 3.83806,-4.52962 1.772128,-2.54278 4.882069,-1.21332 7.525296,-1.39552 2.931708,0.58225 5.832464,-0.61378 8.771644,0.0151 2.32325,-1.18983 4.97438,-1.35462 7.115,-2.68 5.47099,-1.01622 8.7608,-6.20543 13.56078,-8.63443 1.91317,-2.95476 4.51785,-6.74402 3.46922,-10.57557 -0.75415,-4.28938 -1.10956,-8.69793 -3.67,-12.3 -1.86834,-3.77077 -6.82492,-4.29216 -10.5284,-5.20579 -5.63127,-0.3944 -11.12203,1.16998 -16.2116,3.51579 -3.251184,0.2481 -5.955054,2.9884 -8.98,3.47 2.56401,-2.23316 5.502123,-4.3116 7.29,-7.39 1.550216,-2.434565 4.57555,-4.160178 5.07,-7 0.88251,-2.460834 4.01355,-4.543179 3.82,-7.38625 -1.24886,-2.938866 1.199,-5.541998 1.53,-8.16375 1.39583,-4.473295 -0.29908,-9.237048 0.92217,-13.742192 -0.80126,-2.122928 1.1924,-3.966381 0.21783,-3.767808 0.93664,-2.122845 -0.94585,-7.946941 3.83702,-8.137738 2.94228,-0.754635 5.72924,0.572627 8.23808,-0.804671 4.23124,-0.846189 8.6224,-0.793585 12.6749,-2.407591 0.65661,-1.823393 4.11996,-3.316616 3.89,-4.82 -0.14379,-0.635958 -0.77391,-1.74121 0.26,-2.53 0.66608,-2.543991 0.0926,-5.212048 0.86,-7.79 0.28345,-0.332965 -0.78756,0.324468 -0.42,-0.07 z M 39.71,23.55 c -1.577452,1.727163 0.856091,-2.411266 0,0 z M 32.32,126.9 c -1.520066,3.09838 0.05606,-2.08156 0,0 z M 133.4,29.73 c -1.15314,0.32342 -7.70362,0.712796 -4.16392,-0.133701 1.34867,-0.116559 2.92526,-0.39212 4.16392,0.133701 z m -0.11,3.22 c -2.43105,0.101974 -6.30965,-0.433288 -1.73276,-0.229723 0.5728,0.169688 1.25588,-0.172475 1.73276,0.229723 z M 70.34,6.42 c 1.547802,2.1776787 -1.086035,1.9050455 0,0 z m -1.48,1.19 c 1.865396,-1.3665091 -0.541513,1.785746 -0.0077,0.00937 z m -3.62,0.9 c 2.736643,1.0045678 -0.934561,1.874 0,0 z m -1.69,1.06 c 1.665983,-1.0169729 0.823589,1.028481 0,0 z m -3.56,0.97 c 2.296415,-0.5565056 0.266993,0.372786 0,0 z m -4.8,1.5 c 0.420024,-0.689411 3.377999,-0.885713 1.56,-0.14 -0.785806,-1.195441 0.270051,1.387468 -1.57,0.15 z m -9.6,6.77 c 0.618956,-1.376608 1.288679,0.590754 0,0 z m -2.73,0.69 c 3.07367,-2.608548 -0.236359,4.131375 0,0 z m -1.3,2.8 c 3.947246,-0.720024 2.971585,-6.543171 4.23,-3.01625 1.456012,-1.272073 2.415012,-3.596526 5.17,-4.13375 4.717721,-2.098446 9.552507,-4.525089 14.71,-5.18 3.071289,0.776759 4.950124,-2.7299835 8.556896,-1.9248487 C 81.891692,7.6461698 89.616321,6.6222379 97.2375,8.02625 103.38298,8.0243664 109.036,10.54001 115,11.67 c 2.97183,1.159451 5.59019,1.371153 6.83,3.59 4.18116,1.932002 7.77464,5.00095 10.62,8.63 0.53061,4.206221 0.069,0.227717 -2.24,0.36 1.44976,-0.104524 -2.33595,1.721823 -0.94,0 0.59239,-2.950181 -3.9875,-1.215886 -3.57,-3.74 -2.41928,-3.371996 -6.17593,3.393857 -4.84,-0.42 0.0404,-4.023529 -5.43689,2.599129 -3.36,-1.96 -4.14861,-3.486998 -0.8112,4.006118 -4.1475,-1.215 -2.29011,4.331242 -0.30364,-2.476972 -4.2525,-0.865 -2.42222,-0.127275 -5.23924,1.151929 -5.72458,1.486709 1.3594,-2.982799 -3.725834,-1.785582 -5.158701,-1.840772 -0.948062,2.734864 -1.776666,-2.597369 -5.227971,-1.83563 C 89.968086,12.262665 90.49233,19.930931 90.00244,14.577135 88.693196,12.562162 85.005016,13.480865 83.53,14.79 c -1.615936,1.825301 -3.70237,4.461669 -1.09,5.22 1.852019,-1.623165 2.857266,4.922485 0.47,4.6 0.83231,2.351278 1.295284,4.834315 1.92,7.22 0.39481,-2.790376 -0.21552,-6.278227 0.78,-8.74 1.085131,-3.822043 -0.962704,4.545247 1.76,3.61 3.86094,-2.465285 0.483106,-4.296352 0.14,-3.77 -3.072083,-2.364958 1.839168,-2.424907 1.96,-3.07 1.799915,0.473804 3.879615,-1.034104 4.11,-1.34 1.64764,-1.827182 1.380537,0.278596 3.886175,0.159519 C 95.879097,19.331154 94.037315,21.483405 94.44,23.98 95.08989,25.32071 92.407794,29.080018 92.489694,32.194002 91.326922,36.722346 89.724973,41.119548 88.83,45.69 c 0.01836,1.37632 -1.182001,9.506081 -1.57,4.08 0.0104,-2.600835 -0.06268,-4.783385 0.29,-7.33 -0.970369,-3.681371 0.183569,-7.149571 0.55,-10.88 2.032606,-2.160628 -2.736468,-6.463949 -2.171484,-2.346523 -0.241013,3.466099 -1.1624,7.429016 0.154077,10.5022 -1.021967,0.858283 -0.374597,7.091448 -0.805718,4.570261 C 84.482124,39.425227 84.806547,34.778606 83.17625,30.03875 81.981727,28.709657 82.639676,25.482208 81.993418,23.622989 85.293827,19.73742 78.986566,22.530551 79.75875,21.2725 83.459648,20.654392 80.145587,19.83152 78.91,19.68 c 2.229216,1.554496 -2.352018,0.785272 -0.18,3.9 1.117428,3.935583 2.556983,8.014688 2.55,12.09 -0.945649,-1.258209 -1.92556,-5.870567 -1.63,-4.28 0.85251,2.412787 -3.063322,-1.746166 -0.98,-2.19 2.205465,-2.39551 -4.557709,-2.788394 -1.714581,0.588234 C 78.707258,34.323922 80.535745,38.693329 82.89,42.9 80.400269,40.438606 78.930349,37.411574 77.58125,34.19125 76.970197,32.066446 75.929378,28.802559 74.65625,28.05875 75.229446,25.261133 72.423479,24.275693 72.55,22.39 c -1.801201,-3.300322 2.198569,0.804528 2.347023,-0.0037 C 74.545592,20.34138 72.087736,21.29101 74.72,19.74 c -0.639672,2.363937 3.322347,1.287668 2.21,-0.17 -1.646859,-0.782126 0.365959,-0.992031 1.38,-1.59 -0.28842,-0.965517 5.772813,-1.182514 3.18,-4.08 -2.842679,-0.09929 -4.744062,3.351592 -5.97,0.43 -1.918106,4.816944 -0.330082,-2.06261 -2.951753,-0.549558 0.397051,2.838608 -2.798126,4.070248 -0.877138,0.798992 C 71.463081,12.777578 66.335505,14.508097 64.3,14.89 c 0.538547,0.663964 -3.100514,4.654226 -1.524905,0.606701 -1.303238,-0.94196 -4.553007,0.635245 -5.178213,1.640991 C 56.995345,16.136406 50.007363,16.808441 48.33375,17.81 46.627191,20.40037 44.018003,21.383837 41.443521,22.707513 39.655522,23.594871 41.041181,22.677924 41.56,22.3 Z m 74.89,0.18 c -2.61334,-0.317012 1.35515,-1.624206 0,0 z m -14.73,-3.71 c -1.42199,0.434192 -1.68205,-0.52724 0,0 z m -6.45,11.42 c 1.541605,-2.841981 1.086592,-5.560695 3.47,-7.04 1.062986,-6.218166 1.26363,1.47771 -1.145242,4.289193 C 96.739605,28.447699 95.335425,35.238187 95.23,32.04 c 0.167421,1.323203 0.03864,-2.528506 0.04,-1.85 z m -2.4,-13.83 c -1.301549,0.953864 -1.633134,-1.860298 0,0 z m -5.23,36.53 c 0.625196,-1.938829 -0.142598,3.778052 0,0 z M 84.68,83.7 c -0.70624,1.697636 -1.454386,7.682809 -2.338851,6.157364 0.721887,-2.539736 1.215923,-4.280525 1.2669,-6.84024 C 84.002948,81.252265 84.467484,79.235998 84.59,78.05 84.993584,74.482388 85.218629,70.86665 85.366569,67.214324 85.346166,62.314242 83.476222,57.618403 82.495,52.8425 78.542352,50.549329 77.995927,45.537291 75.175203,41.917298 72.540151,39.17603 69.860886,36.295022 67.7,33.33 66.396646,30.822328 64.271978,28.865999 62.252452,26.574561 60.67011,29.138799 59.028703,22.927732 60.09625,21.7775 c 3.279571,2.466767 5.861942,5.896532 8.37375,9.1925 1.78872,1.130379 3.223022,3.912927 4.98,5.97 2.860946,5.175738 8.508383,8.822335 9.59,15.01 2.413736,4.241704 2.470988,9.336547 3.8,13.98 -0.317475,4.726594 -0.765341,9.472599 -1.552321,14.137095 C 85.400454,81.350412 84.669871,82.480192 84.68,83.7 Z M 60.43,18.35 c -2.135226,5.321965 -0.51374,-2.495508 0,0 z m 9.44,6 c -1.146288,-1.936431 1.63185,-2.435395 2.234244,-0.171077 -0.986978,-0.280134 0.960642,3.60658 2.215756,4.211077 -0.02335,2.167846 2.747933,5.504788 2.861792,6.440377 C 75.434213,35.333898 77.184018,37.32865 74.2,33.42 72.835863,31.896809 71.445332,29.012299 69.790089,28.725791 69.589422,26.666246 67.952998,27.237845 67.808895,25.163166 67.405725,21.026173 61.576614,25.483962 64.24,22.77 c 2.509803,-3.755215 3.794023,4.698921 5.63,1.58 z m -0.6,-5.33 c 2.172728,-1.17343 0.703481,1.067027 0,0 z m 3.03,12.51 c -1.876699,1.365857 -1.544365,-1.519145 0,0 z m -1.64,-0.62 c -1.490752,0.246942 -0.371865,-1.03756 0,0 z m -1.53,-1.29 c 0.201603,2.68185 -1.523158,-0.90358 0,0 z m -4.82,-8.93 c -3.015212,0.68434 1.615043,-2.401301 0,0 z m 17.17,4.38 c -3.272223,0.05289 2.089314,-0.160669 0,0 z m 0.29,11.58 c -1.183466,-0.30752 0.01838,-1.996666 0,0 z m -2.11,-3.66 c -0.181573,-0.28318 0.297969,1.401976 0.09,0.25 z M 74.19,17.1 c 1.542054,-1.281606 1.397254,0.860343 0,0 z m 5.09,-1.52 c 0.347692,1.159042 -1.5063,1.243519 0,0 z M 40.15,39.45 c -0.289182,-2.343034 2.349763,1.318201 0,0 z m 2.13,-7.8 C 41.119724,30.162574 40.762191,32.892505 40.560404,29.871459 40.27451,27.473663 42.772417,28.377985 43.29,28.72 c 2.061454,0.912645 -0.944794,1.549902 -1.01,2.93 z m 0.31,0.11 c 2.662199,0.466619 5.623475,1.295582 7.83,2.51 -2.347587,-0.45194 -6.538,-0.967585 -7.83,-2.51 z m 6.52,8.03 c -1.273469,2.154217 -2.325094,0.616197 -4.79,0.18 -3.583822,-0.384028 0.705697,-1.888071 2.24,-1.11 0.328744,-3.099668 4.024986,3.222903 5.83,0.03 3.67784,1.208355 0.845347,1.309784 -2.821782,0.91897 C 50.452083,40.955935 49.021983,39.528466 49.11,39.79 Z m 4.26,2.91 c -1.272701,1.024005 -1.155591,-2.174032 0,0 z m 0.31,4.13 c -0.805956,0.306687 -3.606213,1.516173 -2.079075,-0.691745 0.742073,1.045207 7.634561,-0.999791 4.779075,0.04174 -0.910159,0.144549 -1.860012,0.392938 -2.7,0.65 z m 2.13,-6.89 c -2.39332,-2.849924 2.320814,0.844587 -1.109305,0.151668 -0.02802,-0.45377 0.802364,0.006 1.109305,-0.151668 z m 1.59,9.13 C 55.489469,50.630012 55.888614,48.023949 56.151938,48.505239 55.707011,47.91604 58.431436,47.937705 57.4,49.07 Z m 1.57,-0.98 c -1.461001,0.829993 -0.625917,-0.522634 0,0 z m 0.92,-0.19 c -0.989021,-1.338946 1.015651,-1.037725 0,0 z m -15.3,47.19 c -0.940325,2.000869 0.12797,-1.881973 0,-0.01 z m 5.71,-8.01 c -0.100947,-1.907045 1.379301,1.229398 0,0 z M 51.87,79 c 2.490169,-1.434015 0.599572,2.423714 0,0 z m -0.2,0.14 c -2.879658,2.374116 -4.261833,-0.08511 0,0 z m -2.58,-2.45 c 4.417302,-2.144898 -1.631753,2.730056 0,0 z m 0.39,5.28 c -0.851826,0.669116 -2.22286,-0.09874 0,0 z m -2.83,3.81 c 0.905463,-1.176414 3.305978,-2.193476 2.17,1.12 -0.105759,0.119491 -2.076761,-0.577777 -2.17,-1.12 z m 0.43,5.28 c -3.295267,-1.089369 -3.166019,-4.120233 0.01,0 z M 41.95,71.34 c 0.536702,-1.500259 3.225736,1.019505 3.62,0.71 -1.054084,2.418205 -2.288635,1.228504 -3.71,-0.38 -0.247264,-0.01618 -0.268426,-0.577404 0.09,-0.33 z m -7.64,28.69 c 2.012561,0.83647 2.037742,3.45775 3.57,4.45 2.586818,3.13813 0.911313,1.93153 -1.87,0.36 -1.811246,-1.32364 0.114016,-3.70205 -1.7,-4.81 z m -8.56,-26.9 c 3.032907,-2.765339 -0.530568,2.322167 0,0 z m -1,1.26 c 2.103752,-1.047328 0.412636,0.751526 0,0 z M 4.06,87.62 c 1.4504634,0.22656 -1.0793161,2.039421 0,0 z M 3.6,99.32 c 0.9934465,-0.822952 0.066596,-4.986259 1.29,-2.42 1.2295398,1.458345 -1.0300053,5.39479 -1.34,3.95 0.6041347,-0.57129 -0.070038,-1.002738 0.05,-1.53 z m 7.24,-9.3 C 8.3329497,87.508951 8.9954201,93.558358 7.290204,94.004898 4.9662786,99.09407 5.0657436,92.432683 6.3776354,90.17417 7.0502958,85.746905 11.177046,83.238599 14.14,80.45 c 1.889893,-1.430294 4.487445,-2.406497 6.3,-3.34 3.527752,-1.164927 6.841979,-3.724469 10.681267,-3.999641 C 34.51789,72.774245 32.173618,74.553658 29.01,74.83 c -4.592416,2.66548 -9.712067,4.31261 -13.42,8.43 -1.692393,2.720262 -3.76585,2.508308 -4.74375,5.9175 0.698543,0.396795 -0.06166,0.506746 -0.0062,0.8425 z m 20.8,-4.97 c 0.934328,1.263425 -0.506022,4.174473 0,0 z m 0.15,-4.13 c 0.373061,-1.561527 0.721457,1.637446 0,0 z m 0.07,10.98 c 1.739574,0.633584 -0.868531,1.210004 0,0 z m -0.54,7.15 c -1.202537,-0.870512 -0.532491,-2.722147 0,0 z m -3.25,-5.24 c -1.874169,-2.052739 -2.002844,-4.741167 -3.63,-7.09 -1.067983,-3.68449 1.727651,1.744646 2.594039,2.921001 1.042839,2.277497 2.662417,4.541029 3.055961,6.968999 -4.102951,-1.577749 -1.00299,-0.509045 -2.02,-2.8 z m -4.14,-2.39 c 2.706553,1.599719 3.98584,5.16097 0.85,1.56 -1.525948,-1.528679 -3.864672,-2.671238 -5.04,-4.23 1.522021,0.632453 2.818155,1.763905 4.19,2.67 z m -0.56,-3.46 c 2.892609,2.510686 2.522352,3.765092 0.01,0.21 v -0.21 z m -7.52,16.06 c -1.771034,2.27909 -5.280918,5.65688 -1.41625,0.9975 0.520678,0.48338 1.781009,-2.41271 1.41625,-0.9975 z m 17.03,12.85 c -3.764005,-2.89173 -0.358569,-2.42473 0,0 z m 1.2,2.29 c -1.098808,-0.0921 1.160062,-1.16306 0,0 z m 1.98,23.82 c -0.845958,-2.44402 -1.844462,-5.10279 -1.45,-7.76 0.223841,-3.82065 0.98492,-2.89684 0.69,0.58 0.47024,0.83016 2.68564,14.27143 0.76,7.18 z m 1.26,10.36 c -2.013272,-0.98346 -0.161086,-4.95602 0.055,-0.7275 L 37.32,153.32 Z m 1.3,5.71 c -1.503622,-4.7004 1.134999,-6.59126 0,0 z m 30.58,0.93 c -3.207803,1.10605 -1.714614,-2.12341 0,0 z m 18.82,-25.37 c -0.572774,1.68139 -0.952472,-1.02846 0,0 z m 3.04,1.62 c -1.499681,-0.0405 0.573128,-2.02448 0,0 z m 18.74,2.61 c -1.83209,1.21869 -3.05482,-0.98062 -1.33,0.3 0.24598,-1.25689 3.65588,-0.90734 1.33,-0.3 z m 1.83,-5.53 c -1.36684,-0.83098 1.4612,-1.55394 0.01,0 z m 4.86,-2.62 c -1.39242,0.48515 0.75036,-3.19893 -0.01,-0.02 z m -10.83,-25.35 c 1.52386,-0.70993 -0.48986,1.33672 0,0 z m -14.83,7.54 c 3.581147,-1.99684 7.030568,-4.20125 11.01591,-5.32581 3.10648,-1.85304 6.24452,-0.83031 9.53241,-1.05419 4.09953,-0.0415 9.22894,-0.18102 11.27962,4.08979 2.35393,2.91623 -0.27532,5.35974 0.0921,8.22021 -2.45632,1.69261 -2.39591,5.19836 -5.02185,6.68599 -1.56947,2.58678 -2.27304,3.47104 -5.12777,4.40998 -2.3017,2.18841 -6.36395,1.96096 -9.40038,4.25403 -1.35062,0.65633 -5.45883,-0.57438 -8.175265,-0.31103 -3.610572,-0.45846 -8.286895,-1.28173 -7.548797,-2.341 -1.757896,-0.37391 -5.613421,0.61944 -8.155682,-0.64091 -2.23297,-0.86836 -4.82776,-2.71376 -6.176489,-5.50811 -2.550982,-1.93521 -0.726043,-4.52472 -0.683767,-5.99895 2.57577,-3.24069 6.189759,-2.3404 9.7527,-2.56199 2.947039,-1.09762 5.843465,-2.59283 8.6173,-3.91801 z m -9.09,36.22 c -2.381724,-1.82707 -2.213753,-5.15567 0,0 z m 6.09,-39.38 c 1.680601,-0.78284 -0.196382,1.82264 0,0 z m 29.75,-76.17 c -1.53764,2.361656 -2.56067,5.419378 -4.84462,7.416793 -2.96669,3.310879 -3.81467,7.887424 -6.54538,11.403207 -1.7151,4.167063 -0.74291,8.89443 -1.76355,13.276519 -0.18277,2.784928 -0.40291,6.669088 -1.33645,8.593481 0.88777,2.036403 -1.31776,6.088494 -0.39,7.3 0.97813,0.243655 -1.10559,3.487099 -0.95,5.41 -0.75702,3.427868 -3.47358,5.893952 -4.7,9.19 -2.831786,5.20688 -7.391633,9.05151 -12.52,11.87 -3.198676,2.60691 -6.835129,4.50324 -10.31,6.68 -3.364372,1.21224 -7.403211,2.39405 -8.4,6.36 -1.564084,3.94193 -5.832359,-5.79886 -6.34,1.4 1.976123,2.5082 5.655809,3.27546 7.515,5.89 -3.147321,1.07232 -6.620105,-2.02417 -9.58375,-3.0175 -0.861463,-1.93871 -6.552519,-1.38555 -5.708727,-0.14253 3.378703,2.75931 7.768074,3.64321 11.702257,5.39228 1.814873,0.65723 3.845823,0.17691 5.48522,0.26775 0.905958,0.87503 0.251185,1.97105 -0.92,1.54 -1.06287,0.40416 -2.634388,0.5431 -3.33,0.69 1.949372,1.85844 3.680726,3.23244 6.2,1.79 1.733336,1.07526 -0.50275,2.76093 -1.66,3.02 -1.071166,-0.86007 -3.198423,0.19621 -1.54,1.32 3.061011,0.59373 5.772162,0.28052 8.6,-1.14 4.054131,-0.19383 -4.470663,3.95424 1.104216,2.3143 3.29778,-0.88406 4.720211,1.07019 0.864004,1.66453 -3.906081,1.5632 -8.070791,-0.61166 -11.92829,-0.3118 -2.844352,-2.71678 -0.982131,3.5379 1.138386,3.31297 3.849663,0.14371 7.752067,0.0777 11.551684,0.27 -1.215033,-0.092 -3.738654,2.26782 -0.204394,3.87623 1.066835,1.08134 2.894579,3.13617 3.324394,2.97377 -1.507104,1.34889 1.230242,1.72161 0.03,3.46 -0.801869,-2.25267 -3.24262,-1.60679 -2.68875,-3.06875 -1.952031,-1.45156 -2.400095,-6.00059 -5.64125,-5.0125 -0.589724,1.94064 1.175159,4.22078 2.13,5.78125 0.333431,0.20408 2.362542,-0.29251 1.78,0.61 3.07137,-0.41119 -1.835987,1.54926 -2.45,1.32 -3.514607,2.06615 -4.520653,-3.55695 -6.862686,-5.40178 -2.736228,-2.89892 -4.243953,-6.65891 -5.927314,-10.13244 -3.449407,-0.44546 -1.589535,4.52697 -0.367962,6.35647 1.20854,3.04 2.637422,6.18583 3.51234,9.19317 -0.667757,1.29629 1.310168,5.08658 0.380381,4.30699 -2.761972,-2.6095 -1.500434,-6.84217 -3.781734,-9.82776 -1.156063,-2.32207 -2.02683,-5.06168 -4.073025,-6.68465 0.227138,3.40616 0.02251,7.23338 1.038328,10.61165 0.189428,2.53587 2.559284,4.58532 2.291672,7.05835 -3.022686,-1.38358 -3.376908,-5.15134 -4.605451,-7.96563 C 55.781596,148.46491 55.227076,144.07272 54.35,139.74 c 0.481005,-2.82754 0.191767,-6.38943 -1.9,-8.61 -1.587962,5.01324 -1.004161,10.51533 -0.67,15.74 -0.597226,3.85419 2.119861,7.56738 1.25,11.38 -0.593255,-1.80189 -1.958826,-10.59407 -3.314653,-7.72869 0.174506,3.4041 -0.699621,6.77613 -0.245347,10.17869 -1.319471,-1.94846 -3.166291,-5.49991 -3.472425,-8.69163 C 45.301961,148.61794 45.994882,144.42647 44,141.52 c -2.479514,0.67584 -0.681565,6.44148 -1.7,9.15 0.383695,3.06596 1.692062,6.37379 1.87,9.23 -2.228223,-1.46046 -0.810187,-4.88512 -2.08,-7.08 -0.999235,-3.06619 -0.732316,-6.53872 -1.43699,-9.49265 -1.274615,-1.57045 -1.663559,2.08262 -1.54301,2.99265 -0.140811,2.42149 0.185481,5.09571 -0.49,7.35 -0.564799,0.19359 -1.455661,-3.64924 -1.119032,-5.19179 0.181336,-2.7544 0.949335,-5.06209 0.706875,-7.83439 0.472289,-4.69491 0.533973,-9.40308 1.677157,-14.01507 -0.897997,-3.88063 -3.147898,-3.47474 -3.505,0.31125 -0.6514,5.33834 -1.256129,4.35706 -0.916182,0.14676 0.147176,-2.07404 1.823556,-6.18437 4.355207,-3.82694 4.074781,2.51819 9.056421,3.73365 12.542225,6.97643 0.123818,-1.71005 -4.157173,-4.09962 -5.80125,-6.09625 -2.421297,-2.95634 -5.503407,-5.18644 -8.44,-7.5 -2.109291,-2.93027 -6.581817,-4.60187 -7.65,-8.22 2.107095,-1.14399 -1.033329,-1.50207 -1.58,-1.5 C 24.933118,103.31931 20.40542,99.82191 14.882768,99.637272 11.428341,99.690781 10.357315,98.518753 13.13,96.49 c 3.21881,-0.229211 6.752923,1.789544 9.7,1.9 C 19.976528,96.512386 16.73121,95.341146 13.914531,93.522031 14.393298,90.806269 16.520918,89.569876 18.82,91.84 c 3.204703,2.055344 5.249654,5.202879 8.97,6.49 4.849597,3.42065 8.697774,8.36879 13.86,11.07 -1.553017,-1.1863 -2.270594,-3.44893 0.282248,-1.13688 1.962258,2.41891 5.681236,2.53166 8.437752,2.95688 0.0042,0.15256 1.856692,-0.20842 2.721494,0.39763 0.464403,2.38967 3.076254,0.65697 4.188506,-0.28763 -3.156538,-1.77244 -7.312023,-1.44998 -9.83,-4.36 -2.078235,-1.84756 -5.507812,-2.48265 -7.069195,-5.74649 C 37.106659,99.884603 35.959414,97.808848 35.83,94.26 34.246281,90.711605 34.852827,87.184561 35.95,83.5 c 1.310147,-1.81776 0.590636,-5.063918 3.3,-5.16 0.934578,-0.625704 2.979054,-0.06714 3.33,-0.66 -0.931034,-0.831397 1.386469,-0.919633 0.63,0.2 -0.59475,-0.931029 -0.07484,1.017408 -1.234013,2.050082 C 39.322714,84.225977 35.880503,89.126823 37.74,94.4 c 0.764432,3.537365 2.923949,5.75699 5.32,8.37 1.255465,-0.15083 1.594568,0.92722 1.7,1.81 0.382639,-1.15388 1.658825,0.33588 2.71,0.15 0.501731,-0.65892 2.713916,0.34346 3.911131,0.45626 3.28731,0.24817 6.13195,2.08435 9.418869,0.86374 0.386796,-0.73107 2.355829,-0.72038 3.42,-1.15 2.040174,-0.27589 3.199284,-1.61681 4.5,-2.66 0.474775,-0.64191 3.340959,-1.49129 1.42,-1.6 1.31514,-1.934275 1.724965,-2.038303 2.75,-3.94 0.84205,-0.317615 0.44258,-1.370158 1.3,-1.96 0.488295,-1.037151 -0.346162,-1.178352 -0.02,-1.56 0.385572,-0.678459 0.263376,-3.394147 1.43,-4.43 -0.465627,-0.721629 -0.308216,-2.705654 0.02,-2.89 0.07682,-2.086933 -1.283386,1.050158 -1.27,1.94 0.193234,-3.487872 0.102583,-6.522553 0.170968,-9.856421 C 74.629305,73.913882 74.543174,70.19044 72.93,66.47 71.733511,64.929393 73.551403,64.818612 72.200559,62.775856 70.979985,60.566887 69.860779,57.311792 69.243069,54.426304 67.949521,50.854572 65.783382,47.417327 64.773312,43.895255 61.247338,39.403028 58.483862,33.930668 52.79,31.76 c -1.692653,-2.377727 -8.711638,-4.855254 -3.5475,-6.53 3.016032,-2.905916 6.025916,1.2228 8.8775,2.68 2.51809,1.696114 5.307689,3.484843 7.482865,5.922865 C 67.469101,35.864319 68.557553,38.15533 70.47,40.03 68.339339,38.862693 66.341481,36.109356 64.29361,34.466404 62.880455,32.977703 57.413363,26.609522 57.577165,30.91918 58.056414,33.236346 61.281144,33.840521 61.56,34.42 c 1.751415,3.165635 5.268529,5.363351 7.81,7.93 3.897777,5.133071 -1.236635,-5.479817 3.337453,-0.100989 3.137088,4.563555 4.631069,9.936998 7.752547,14.490989 1.88403,3.708911 4.160732,7.740638 3.15,12.03 -1.440628,-2.755225 -0.878758,-6.248466 -2.82,-8.73 -1.037814,0.986428 -0.885768,-0.777655 -1.97,-1.75 1.622323,0.600529 -0.389978,-1.7318 -0.61,-2.6 -1.488059,-4.680273 -6.454355,-7.066953 -8.91,-11.21125 -4.016204,-4.016278 -0.0078,2.836475 1.21,4.44125 2.655065,3.201482 4.432931,7.025406 6.59,10.58 2.465445,4.583458 3.980286,9.425699 4.04,14.62 1.812979,5.294483 1.599119,11.313666 0.268385,16.65029 -1.087269,2.616692 -1.087847,5.64998 -2.537329,8.30789 -3.455926,5.32979 1.460549,2.11283 4.358944,0.12182 0.820119,-0.639349 3.690492,-2.046234 2.66,-2.08 0.430414,-0.391128 0.811167,-1.752908 1.01,-1.63 1.34493,-0.591802 2.951138,-3.864013 4.593285,-5.182515 C 92.82742,87.876817 95.680709,85.72293 96.25,83.22 c 1.986245,-2.014891 0.479095,-5.483991 1.159669,-8.195713 1.246209,-4.069413 0.541442,-8.36939 1.411883,-12.330214 C 100.5806,60.023977 99.624965,57.256943 99.85,54.32 c 3.08135,-4.473735 5.59515,-9.262316 8.39326,-13.939226 2.46451,-3.310162 5.86221,-5.732745 8.66674,-8.770774 2.31664,-1.097621 4.78158,-6.766373 0.81,-3.27 -3.01115,1.532256 -6.10964,3.159173 -8.1,6.12 -3.07756,2.159654 -3.20913,6.333221 -5.65,9.11 -1.81048,3.915421 -5.752082,6.769282 -5.928683,11.365594 C 95.968508,59.392525 97.459734,64.360742 96.36,68.99 c -1.729248,4.765851 -1.703517,10.42018 -5.09,14.51 -1.351163,2.112213 -2.7332,5.188734 -4.38,6.36 0.819046,-1.670833 2.561627,-4.831626 3.43,-6.94 1.451637,-1.959972 2.682374,-6.189052 3.29,-9.2 1.472993,-3.26298 1.20736,-6.683231 1.1,-10.17 0.947651,-4.98915 -1.1867,-9.804677 1.32,-14.30125 2.481323,-3.531976 3.203381,-7.803821 4.48,-11.78875 1.69715,-2.45676 2.43556,-5.69733 5.0834,-7.536416 2.17294,-2.661844 3.97047,-3.8241 1.05841,-4.713531 C 103.23668,28.233146 99.588351,31.948915 98.58,36.66 96.826918,41.63045 93.969106,46.260023 93.733316,51.619109 92.70549,55.40629 93.671446,59.29355 92.92,63.12 c 0.415263,1.943187 -0.895668,6.03527 -0.74,8.85 -0.678078,2.304858 -1.354361,6.263733 -3.33,7.33 0.476687,-3.29692 1.494333,-6.625105 2.19,-9.88 -1.441967,-0.709392 -0.07888,0.136181 0.123949,-0.968015 C 90.83243,66.473008 91.347758,63.320961 91.14,61.88 91.034375,60.828109 91.820956,58.042307 91.599935,54.285188 92.046875,53.261313 92.423703,49.768619 92.09,49.78 c -0.38179,-0.94691 0.96416,-2.414092 0.82,-4.14 1.47745,-1.442708 2.316799,-4.894694 2.25,-6.26 1.335559,-3.638173 2.528177,-2.23632 3.0325,-6.38625 1.738257,-4.349449 5.55491,-7.533826 7.7075,-11.73375 5.35392,-1.293945 0.9706,3.152045 2.42,2.45 0.26619,3.339846 3.02916,-3.037677 5.59495,-1.216151 0.60401,1.872084 -2.16074,3.550707 -3.42495,5.026151 -1.22416,2.647062 -3.66568,3.341434 -5.5407,5.478843 -1.20383,2.522899 -4.93803,7.156593 -3.7193,9.089907 1.78656,-2.434205 2.65679,-4.468473 4.43,-7.03875 2.64123,-1.372474 3.28561,-4.607091 6.13787,-5.685601 2.50138,-1.192092 4.10102,-3.56504 6.74578,-4.315395 2.36594,-1.234978 3.83384,-1.690023 4.99635,0.810996 2.31533,-3.441248 0.62128,4.232978 -1.84969,4.936004 -1.09576,1.25243 -2.8284,1.731408 -4.11031,2.753996 z m -46.87,88.54 c 0.884658,-0.99751 -0.270115,1.53596 0,0 z m 50.1,-74.8 c -2.56915,-2.45956 -3.56667,-5.726984 0,0 z m 2.36,-2.67 c -1.97674,-2.407595 2.37436,1.63865 0,0.01 z m 7.7,0.81 c -2.37804,0.998701 -3.87698,-2.604347 -6.12411,-3.52608 -2.55034,-1.83842 -5.15484,-5.13845 -1.08624,-1.780456 2.51305,1.566709 4.68817,4.362477 7.31035,5.136536 l -0.09,0.16 z m -7.18,-7.87 c 2.85006,0.922052 1.46817,1.295846 0,0 z m 2.54,1.26 c 3.84137,1.255417 4.51787,2.918044 0.67173,0.545271 C 126.7068,39.158517 126.34098,39.113667 126.23,38.82 Z m 5.71,5.28 c -3.09703,1.911554 -1.04257,-1.206341 0,0 z m -1.66,-3.24 c 2.05107,0.501173 0.87272,0.931912 0,0 z m 3.76,-2.59 c -3.63144,-1.268123 -7.56568,-1.930378 -11.03,-3.64 3.56761,0.539188 7.06891,2.406032 10.45,2.9 0.1482,-0.921182 0.63229,0.661823 0.58,0.74 z m 0.85,-2.65 c 0.15886,-1.786502 1.18774,0.682707 0,0 z m 1.04,5.43 c 1.88851,-0.04564 -0.55192,1.723878 0,0 z m 0.72,3.62 c -2.68143,-0.09759 1.3069,-2.434264 0,0 z m 0.44,-4.95 c -0.35765,1.304704 1.37941,-1.555547 0,0 z m 0.63,-3.69 c -0.7018,-1.528618 -1.59014,-3.671646 -0.37,-3.33 0.15606,0.869022 0.57839,2.985756 0.37,3.33 z"
             id="path6"
             style="fill:#b9864f;fill-opacity:1" />
        </g>
        <path
           d="m 59.74,116.33 c -2.112631,1.19824 -6.347661,6.74612 -7.54875,4.04 1.660316,-2.92343 2.913069,-6.13484 5.28875,-8.54 1.389289,-2.90346 -10.072594,-3.96755 -5.666776,-4.4873 4.343823,1.30745 8.923885,-0.68584 13.386776,-0.2427 2.793455,-2.40019 6.40442,-4.0539 7.561549,-7.833098 C 73.415322,96.933869 76.011789,93.72613 75.44,94.19 75.235775,93.098103 75.723999,90.105889 76.042382,87.694194 77.117816,86.294238 75.866904,84.644676 77.32,82.18 c 2.141611,-1.811756 2.006088,3.87824 1.38,5.5 0.82115,2.979309 -2.467061,5.84247 -2.74,8.71 -1.874777,1.190867 -1.476572,1.061335 -2.22,4.2 -0.10129,0.73376 -1.378696,1.7572 -2.16,3.49 0.116054,0.32437 -3.922226,4.87962 -0.59125,3.50625 3.098133,-0.17368 7.130863,0.30078 1.99125,1.63375 -1.134232,2.9913 -5.421316,1.70177 -7.538177,3.89487 -1.479785,0.35194 -3.437815,1.29937 -5.271823,2.87513 0.334521,-0.49407 -0.598234,0.6227 -0.43,0.34 z"
           id="path7"
           style="fill:#b9864f;fill-opacity:1" />
        <path
           d="m 78.5,105.77 c -4.525723,0.37496 2.140352,-1.82127 3.64,-2.06 3.513011,-1.7948 5.268966,-6.77401 9.4952,-6.694816 1.152581,2.471311 -3.531983,5.121336 -5.832123,6.781586 -2.094953,1.26257 -4.910254,1.88285 -7.303077,1.97323 z"
           id="path8"
           style="fill:#b9864f;fill-opacity:1" />
        <path
           d="m 58.15,118.99 c -2.161384,0.54617 3.197521,-3.11748 4.67,-3.39 3.090725,-2.10876 8.030194,-2.31994 3.005589,1.05508 -2.632259,0.43271 -5.134472,1.71317 -7.675589,2.33492 z"
           id="path9"
           style="fill:#b9864f;fill-opacity:1" />
        <g
           id="g19"
           style="fill:#b9864f;fill-opacity:1">
          <path
             d="m 80.2,120.92 c -2.075237,0.10278 -8.756502,-1.98848 -3.39,-1 2.732441,-0.0134 5.037141,0.51904 7.91,0.12 3.437624,2.2034 7.495587,1.87516 11.36,1.8725 -3.17556,-1.34226 1.569642,-4.32355 3.55,-6.5525 2.13894,-1.47519 3.78308,-4.12183 6.54,-4.03 3.15399,-1.97355 7.49247,-2.49348 10.81375,-1.16 -1.43989,2.99548 -5.36517,3.28741 -7.96375,5.02 -3.10605,1.2357 -4.83941,2.32738 -6.44247,5.04294 -2.14493,2.84798 -4.522046,6.03983 -8.540059,6.41343 -3.198593,1.00203 -6.213704,-1.50005 -9.147471,-2.49637 -1.604366,-1.03698 -3.037459,-2.36931 -4.69,-3.23 z"
             id="path10"
             style="fill:#b9864f;fill-opacity:1" />
          <path
             d="m 101.77,124.86 c -4.075235,2.25868 -1.72736,1.01142 -0.18,-1.75 0.59214,-1.79375 3.79569,0.99353 0.52453,1.55335 L 101.76,124.88 Z"
             id="path11"
             style="fill:#b9864f;fill-opacity:1" />
          <path
             d="m 77.29,118.55 c -2.828874,0.98381 1.057898,-1.39793 0,0 z"
             id="path12"
             style="fill:#b9864f;fill-opacity:1" />
          <g
             id="g18"
             style="fill:#b9864f;fill-opacity:1">
            <path
               d="m 48.97,146.34 c -0.432163,4.57026 -4.369989,-4.42104 -2.445046,-5.95478 0.249376,-2.23245 0.843701,-10.6632 2.175046,-5.15859 -0.04458,3.98392 0.903089,7.89726 1.28,11.84337 -0.757389,0.8054 -0.162583,-1.8661 -1.01,-0.73 z"
               id="path13"
               style="fill:#b9864f;fill-opacity:1" />
            <path
               d="m 41.86,140.14 c 0.03892,3.48532 -3.387036,1.60453 -1.7475,0.44875 0.411626,-3.23172 1.089494,-6.99361 2.053591,-10.15621 0.5118,-5.24832 7.821019,0.54735 2.543909,-1.01254 -0.26663,3.39521 -1.24037,6.60235 -2.740573,9.69401 0.0306,0.061 -0.296258,1.42864 -0.109427,1.02599 z"
               id="path14"
               style="fill:#b9864f;fill-opacity:1" />
            <path
               d="m 73,152.63 c -2.025462,-0.67793 -5.362062,-7.24463 -1.02,-4.43 0.0538,1.01685 3.517494,4.76074 1.02,4.43 z"
               id="path15"
               style="fill:#b9864f;fill-opacity:1" />
            <path
               d="m 64.33,135.97 c -6.443652,1.58368 -1.168702,-2.83484 1.628438,-0.18844 L 65.5375,135.9225 Z"
               id="path16"
               style="fill:#b9864f;fill-opacity:1" />
            <path
               d="m 73.49,154.67 c -1.630892,-1.34549 3.218649,-2.46034 0,0 z"
               id="path17"
               style="fill:#b9864f;fill-opacity:1" />
            <path
               d="m 49.89,148.6 c -0.855758,0.90528 0.278283,-2.92193 0,0 z"
               id="path18"
               style="fill:#b9864f;fill-opacity:1" />
          </g>
        </g>
        <g
           id="g22"
           style="fill:#b9864f;fill-opacity:1">
          <path
             d="M 4.9,99.36 C 3.0348128,94.612093 2.036639,104.35351 4.25,101.08168 4.2808682,100.4334 4.2683068,99.713262 4.9,99.36 Z"
             id="path19"
             style="fill:#b9864f;fill-opacity:1" />
          <path
             d="m 44.31,116.53 c -3.509813,-0.91929 -6.384917,-2.95131 -9.149334,-5.20932 -3.34484,-0.9554 -2.067864,-6.02491 -5.900666,-6.43068 -3.137502,-2.44407 2.189464,-1.76543 3.847874,1.34715 2.363928,2.42819 5.808197,3.83054 7.672126,6.71285 -0.03653,0.80302 5.922518,3.1363 3.53,3.58 z"
             id="path20"
             style="fill:#b9864f;fill-opacity:1" />
          <path
             d="m 48.59,118.67 c -3.184262,-1.0677 3.92791,-3.7745 0.175162,-0.14773 z"
             id="path21"
             style="fill:#b9864f;fill-opacity:1" />
          <path
             d="m 49.85,106.73 c -2.096784,-0.60152 -0.808804,-1.27479 0,0 z"
             id="path22"
             style="fill:#b9864f;fill-opacity:1" />
        </g>
      </g>
      <g
         id="g36"
         style="fill:#b9864f;fill-opacity:1">
        <path
           d="m 99.79,78.85 c -1.707154,-0.207986 0.76087,-9.994417 0.33999,-4.122151 0.004,1.358206 0.26608,2.906324 -0.33999,4.122151 z"
           id="path23"
           style="fill:#b9864f;fill-opacity:1" />
        <path
           d="m 65.81,43.02 c -3.182588,-2.857416 0.579277,-2.746966 0,0 z"
           id="path24"
           style="fill:#b9864f;fill-opacity:1" />
        <path
           d="m 90.7,95.57 c -1.103465,-2.065825 3.115199,-1.640006 0,0 z"
           id="path25"
           style="fill:#b9864f;fill-opacity:1" />
        <path
           d="m 72.83,105.1 c -2.224048,-0.12243 1.570655,-2.93143 0,0 z"
           id="path26"
           style="fill:#b9864f;fill-opacity:1" />
        <path
           d="m 56.89,29.31 c -1.162678,0.946175 -1.648718,-2.44964 0,0 z"
           id="path27"
           style="fill:#b9864f;fill-opacity:1" />
        <path
           d="m 95.35,40.39 c -0.38861,-1.446921 1.185594,-0.220488 0,0 z"
           id="path28"
           style="fill:#b9864f;fill-opacity:1" />
        <path
           d="m 89.72,38.73 c -1.133776,5.140913 -1.152813,-0.28524 -0.68,-2.97 0.679179,-3.6161 1.061727,-7.497123 1.137125,-11.050433 -1.599012,-4.551137 7.474318,-4.833523 3.032357,-0.504839 -1.416992,0.681574 -0.270526,5.459635 -2.145863,7.432859 C 89.815708,33.078918 91.016125,36.130642 89.72,38.73 Z"
           id="path29"
           style="fill:#b9864f;fill-opacity:1" />
        <path
           d="m 75.94,26.97 c 1.213013,-1.687759 -3.348921,-2.847302 1.45,-3.12 1.83529,1.18562 -0.155404,3.18522 -1.45,3.12 z"
           id="path30"
           style="fill:#b9864f;fill-opacity:1" />
        <path
           d="m 88.31,27.87 c -1.746746,-2.069255 1.909315,-1.439622 0,0 z"
           id="path31"
           style="fill:#b9864f;fill-opacity:1" />
        <path
           d="m 80.29,19.11 c -2.251966,1.524683 1.546742,-2.303257 0,0 z"
           id="path32"
           style="fill:#b9864f;fill-opacity:1" />
        <path
           d="m 129.78,23.55 c -1.48009,0.308058 -0.2941,-2.021711 0,0 z"
           id="path33"
           style="fill:#b9864f;fill-opacity:1" />
        <path
           d="m 82.96,23.4 c -1.81394,-0.628089 1.003411,-1.130608 0,0 z"
           id="path34"
           style="fill:#b9864f;fill-opacity:1" />
        <path
           d="m 75.37,23.85 c -0.617117,1.388065 -1.286594,-0.747746 0,0 z"
           id="path35"
           style="fill:#b9864f;fill-opacity:1" />
        <path
           d="m 76.22,34.11 c -1.67825,-0.343943 -3.219706,-4.230683 -4.98,-5.92 -3.346319,-2.166627 -0.810456,-5.02446 0.760718,-1.099134 1.54948,2.681413 1.903394,3.712232 3.919282,6.239134 -0.285182,-0.0014 0.596887,0.789347 0.3,0.78 z"
           id="path36"
           style="fill:#b9864f;fill-opacity:1" />
      </g>
    </g>
  </g>
</svg>
